<svg version="1.1" id="Layer_1" xmlns="http://www.w3.org/2000/svg" xmlns:xlink="http://www.w3.org/1999/xlink" x="0px" y="0px"
	 width="100%" viewBox="0 0 200 200" enable-background="new 0 0 200 200" xml:space="preserve">
<path fill="#1CA9FF" opacity="1.000000" stroke="none" 
	d="
M131.000000,201.000000 
	C87.333336,201.000000 44.166672,201.000000 1.000006,201.000000 
	C1.000004,134.333344 1.000004,67.666679 1.000002,1.000015 
	C67.666656,1.000010 134.333313,1.000010 200.999969,1.000005 
	C200.999985,67.666649 200.999985,134.333298 201.000000,200.999969 
	C177.833328,201.000000 154.666672,201.000000 131.000000,201.000000 
M75.274979,138.666962 
	C75.207771,139.101334 75.140564,139.535690 74.638176,140.516739 
	C75.088860,142.010712 75.539543,143.504700 76.568001,145.443390 
	C81.607437,149.861038 85.033592,149.365250 90.169716,142.723312 
	C90.433212,141.772476 90.923416,140.822403 90.926559,139.870712 
	C90.982414,122.899689 91.016518,105.928261 90.914932,88.957756 
	C90.907135,87.655014 89.852303,86.358543 88.987335,84.491684 
	C86.683525,82.993393 84.527199,80.620262 82.041443,80.201172 
	C78.281456,79.567245 76.357887,82.704758 74.936981,86.198853 
	C74.787506,86.488228 74.830818,86.762299 75.280693,87.904419 
	C75.211922,90.925964 75.143150,93.947517 74.591507,97.649963 
	C74.456757,110.525871 74.310181,123.401695 74.225662,136.277939 
	C74.221840,136.860260 74.779137,137.446259 75.274979,138.666962 
M173.120956,84.235809 
	C168.265579,77.824509 162.964813,78.457588 158.670853,86.585556 
	C158.497208,87.046417 158.173340,87.506699 158.171570,87.968216 
	C158.103012,105.816734 158.024200,123.665550 158.111252,141.513535 
	C158.116989,142.688583 159.418900,143.857300 160.695084,145.447708 
	C165.593918,149.771240 169.060364,149.368713 173.970093,143.416367 
	C174.312546,142.003586 174.946930,140.592026 174.952866,139.177841 
	C175.022202,122.679832 175.035416,106.181206 174.940002,89.683456 
	C174.929886,87.935112 174.135544,86.191299 173.120956,84.235809 
M39.133701,143.617111 
	C43.003052,149.928207 47.513824,150.053726 52.813122,143.623001 
	C53.208591,141.749969 53.931206,139.879623 53.946621,138.003479 
	C54.049221,125.519073 54.109394,113.031929 53.937347,100.549072 
	C53.883007,96.606285 54.929886,94.644951 59.249115,94.887878 
	C60.787529,94.974411 62.398087,93.778206 64.576187,92.748604 
	C70.036133,88.341995 69.681664,84.073685 62.728443,78.939774 
	C62.126938,78.681450 61.527248,78.202644 60.923653,78.197670 
	C50.854191,78.114731 40.783840,78.045082 30.715086,78.132843 
	C29.811928,78.140717 28.918396,79.253052 27.377262,80.186920 
	C21.273687,84.062340 21.148737,88.544884 27.360819,93.780975 
	C28.394522,94.182487 29.493477,95.045616 30.451286,94.910225 
	C36.455494,94.061485 37.209301,97.262436 37.089371,102.257027 
	C36.805759,114.067825 36.925003,125.891014 37.078175,137.706635 
	C37.101021,139.468979 38.188519,141.217529 39.133701,143.617111 
M117.663506,101.824562 
	C117.110580,98.235786 116.675919,94.623177 115.959511,91.067337 
	C115.542641,88.998253 114.674065,87.020172 113.818954,84.765808 
	C113.818954,84.765808 113.881058,84.469933 113.879601,83.644966 
	C113.866043,80.692986 112.018005,80.000526 108.755394,80.151474 
	C104.439804,79.301437 101.764885,81.445938 99.192162,85.370956 
	C98.796509,86.574524 98.061668,87.776573 98.056297,88.981880 
	C97.980850,105.927254 97.959923,122.873413 98.087448,139.818161 
	C98.097931,141.211960 99.281158,142.596909 100.361191,144.559982 
	C105.845451,150.727692 111.402649,149.690704 114.815910,141.634857 
	C115.212524,136.974335 115.752625,132.319809 115.947464,127.650871 
	C116.050568,125.180222 116.253227,123.315285 119.960327,124.195854 
	C121.966148,126.490150 123.971962,128.784454 126.045395,131.718796 
	C126.661995,132.476257 127.278595,133.233704 128.356644,134.488831 
	C132.384064,138.416718 136.310349,142.455963 140.472061,146.236023 
	C143.596954,149.074371 147.300980,149.181152 150.415573,146.410538 
	C153.587906,143.588577 153.096237,139.964066 150.512451,137.038147 
	C145.382004,131.228348 139.963196,125.672928 134.653809,120.021538 
	C132.176651,117.384819 129.676788,114.769424 126.598747,111.523865 
	C133.626068,104.724541 140.316101,98.265160 146.988907,91.788055 
	C149.397171,89.450424 151.740067,87.128372 148.576416,83.621193 
	C144.806290,79.441666 141.619171,78.765724 137.822632,81.820160 
	C135.010605,84.082535 132.419632,86.619659 129.187531,89.283447 
	C128.781403,90.152344 128.375290,91.021248 127.657288,92.486542 
	C124.583527,95.705032 121.509766,98.923523 117.663506,101.824562 
M154.083939,47.602783 
	C153.562149,48.435371 152.971542,49.233143 152.529831,50.106239 
	C149.790482,55.520649 147.668533,60.847870 154.380402,67.623489 
	C160.052628,73.349609 164.869766,75.931473 171.135162,72.057220 
	C176.665237,68.637642 180.379349,64.711586 180.350281,57.934731 
	C180.323181,51.609165 177.317383,47.134525 171.739792,44.550793 
	C165.595444,41.704529 159.865784,43.178162 154.083939,47.602783 
M66.818497,60.057461 
	C67.526474,66.399803 74.589790,73.541611 80.537331,73.928734 
	C86.618858,74.324585 94.622971,67.849457 96.057556,61.373268 
	C97.208763,56.176285 94.458199,47.592514 90.889816,45.598560 
	C80.263962,39.660995 65.223160,44.648651 66.818497,60.057461 
z"/>
<path fill="#FBFDFF" opacity="1.000000" stroke="none" 
	d="
M129.730179,89.034393 
	C132.419632,86.619659 135.010605,84.082535 137.822632,81.820160 
	C141.619171,78.765724 144.806290,79.441666 148.576416,83.621193 
	C151.740067,87.128372 149.397171,89.450424 146.988907,91.788055 
	C140.316101,98.265160 133.626068,104.724541 126.598747,111.523865 
	C129.676788,114.769424 132.176651,117.384819 134.653809,120.021538 
	C139.963196,125.672928 145.382004,131.228348 150.512451,137.038147 
	C153.096237,139.964066 153.587906,143.588577 150.415573,146.410538 
	C147.300980,149.181152 143.596954,149.074371 140.472061,146.236023 
	C136.310349,142.455963 132.384064,138.416718 128.125778,133.932404 
	C127.255867,132.610229 126.616821,131.844498 125.977776,131.078751 
	C123.971962,128.784454 121.966148,126.490150 119.524803,123.735023 
	C117.633171,121.708237 116.177063,120.142281 114.137421,117.948761 
	C114.137421,126.796509 114.137421,134.392883 114.137421,141.989273 
	C111.402649,149.690704 105.845451,150.727692 100.148384,143.805359 
	C99.914497,123.706627 99.893425,104.362518 99.872345,85.018410 
	C101.764885,81.445938 104.439804,79.301437 109.401932,80.361038 
	C111.326004,81.870369 112.603531,83.170151 113.881058,84.469933 
	C113.881058,84.469933 113.818954,84.765808 113.886261,85.351227 
	C113.953560,92.671913 113.953560,99.407166 113.953560,107.557510 
	C116.154007,104.899025 117.295006,103.520515 118.436005,102.142014 
	C121.509766,98.923523 124.583527,95.705032 128.074905,92.050964 
	C128.905075,90.755058 129.317627,89.894722 129.730179,89.034393 
z"/>
<path fill="#FEFEFF" opacity="1.000000" stroke="none" 
	d="
M27.017042,93.109573 
	C21.148737,88.544884 21.273687,84.062340 28.165632,80.042603 
	C40.460323,79.753593 51.966640,79.608910 63.472961,79.464226 
	C69.681664,84.073685 70.036133,88.341995 63.822414,92.957260 
	C60.041126,93.233742 57.013611,93.301575 53.724777,93.303421 
	C53.249107,93.486328 53.034756,93.735207 52.635483,94.391479 
	C52.345833,111.192215 52.241108,127.585556 52.136383,143.978897 
	C47.513824,150.053726 43.003052,149.928207 38.980057,142.828400 
	C38.826412,125.835358 38.826412,109.631012 38.826412,93.109573 
	C34.318371,93.109573 30.667707,93.109573 27.017042,93.109573 
z"/>
<path fill="#F8FCFF" opacity="1.000000" stroke="none" 
	d="
M173.311218,143.982727 
	C169.060364,149.368713 165.593918,149.771240 160.332397,144.824387 
	C159.756287,142.065094 159.369202,139.930115 159.356827,137.792984 
	C159.256561,120.496002 159.226685,103.198616 159.175339,85.901360 
	C162.964813,78.457588 168.265579,77.824509 173.314514,84.859314 
	C173.442474,104.982780 173.376846,124.482758 173.311218,143.982727 
z"/>
<path fill="#F8FCFF" opacity="1.000000" stroke="none" 
	d="
M75.074379,96.969063 
	C75.143150,93.947517 75.211922,90.925964 75.237701,87.198914 
	C75.171227,86.313957 75.147728,86.134514 75.124237,85.955070 
	C76.357887,82.704758 78.281456,79.567245 82.041443,80.201172 
	C84.527199,80.620262 86.683525,82.993393 89.141708,85.243332 
	C89.357773,90.297966 89.444885,94.600754 89.476593,98.903961 
	C89.586220,113.780006 89.676537,128.656189 89.774200,143.532318 
	C85.033592,149.365250 81.607437,149.861038 76.231895,144.858490 
	C75.621643,142.839081 75.347496,141.404572 75.073349,139.970062 
	C75.140564,139.535690 75.207771,139.101334 75.252853,137.883484 
	C75.178612,123.723022 75.126495,110.346046 75.074379,96.969063 
z"/>
<path fill="#F4FAFE" opacity="1.000000" stroke="none" 
	d="
M154.335754,47.323212 
	C159.865784,43.178162 165.595444,41.704529 171.739792,44.550793 
	C177.317383,47.134525 180.323181,51.609165 180.350281,57.934731 
	C180.379349,64.711586 176.665237,68.637642 171.135162,72.057220 
	C164.869766,75.931473 160.052628,73.349609 154.380402,67.623489 
	C147.668533,60.847870 149.790482,55.520649 152.529831,50.106239 
	C152.971542,49.233143 153.562149,48.435371 154.335754,47.323212 
M175.527206,64.755051 
	C176.094513,61.838238 176.661804,58.921429 177.357605,55.343895 
	C169.881851,55.343895 163.599380,55.156269 157.348572,55.517178 
	C156.225800,55.582005 154.410980,57.858677 154.328354,59.201080 
	C154.024414,64.139076 157.853607,69.191589 162.362625,70.625549 
	C167.167236,72.153511 171.249771,70.490639 175.527206,64.755051 
z"/>
<path fill="#F3FAFF" opacity="1.000000" stroke="none" 
	d="
M66.777634,59.655823 
	C65.223160,44.648651 80.263962,39.660995 90.889816,45.598560 
	C94.458199,47.592514 97.208763,56.176285 96.057556,61.373268 
	C94.622971,67.849457 86.618858,74.324585 80.537331,73.928734 
	C74.589790,73.541611 67.526474,66.399803 66.777634,59.655823 
M70.736259,62.491409 
	C73.535378,69.117500 77.981468,72.010498 83.672318,70.908676 
	C88.703491,69.934578 92.765167,64.710060 92.890640,59.237469 
	C92.950798,56.613712 92.192787,55.183826 89.215942,55.294006 
	C84.722221,55.460331 80.217751,55.327221 75.717888,55.338364 
	C69.759544,55.353119 69.756462,55.363953 70.736259,62.491409 
z"/>
<path fill="#02A1FF" opacity="1.000000" stroke="none" 
	d="
M27.188931,93.445274 
	C30.667707,93.109573 34.318371,93.109573 38.826412,93.109573 
	C38.826412,109.631012 38.826412,125.835358 38.804951,142.506073 
	C38.188519,141.217529 37.101021,139.468979 37.078175,137.706635 
	C36.925003,125.891014 36.805759,114.067825 37.089371,102.257027 
	C37.209301,97.262436 36.455494,94.061485 30.451286,94.910225 
	C29.493477,95.045616 28.394522,94.182487 27.188931,93.445274 
z"/>
<path fill="#02A1FF" opacity="1.000000" stroke="none" 
	d="
M99.532257,85.194687 
	C99.893425,104.362518 99.914497,123.706627 99.927528,143.518356 
	C99.281158,142.596909 98.097931,141.211960 98.087448,139.818161 
	C97.959923,122.873413 97.980850,105.927254 98.056297,88.981880 
	C98.061668,87.776573 98.796509,86.574524 99.532257,85.194687 
z"/>
<path fill="#009FFD" opacity="1.000000" stroke="none" 
	d="
M53.986095,93.369400 
	C57.013611,93.301575 60.041126,93.233742 63.522179,93.166718 
	C62.398087,93.778206 60.787529,94.974411 59.249115,94.887878 
	C54.929886,94.644951 53.883007,96.606285 53.937347,100.549072 
	C54.109394,113.031929 54.049221,125.519073 53.946621,138.003479 
	C53.931206,139.879623 53.208591,141.749969 52.474751,143.800949 
	C52.241108,127.585556 52.345833,111.192215 52.856003,94.344223 
	C53.549484,93.780930 53.791035,93.607544 53.986095,93.369400 
z"/>
<path fill="#02A1FF" opacity="1.000000" stroke="none" 
	d="
M63.100700,79.201996 
	C51.966640,79.608910 40.460323,79.753593 28.487198,79.875366 
	C28.918396,79.253052 29.811928,78.140717 30.715086,78.132843 
	C40.783840,78.045082 50.854191,78.114731 60.923653,78.197670 
	C61.527248,78.202644 62.126938,78.681450 63.100700,79.201996 
z"/>
<path fill="#019FFF" opacity="1.000000" stroke="none" 
	d="
M158.923096,86.243454 
	C159.226685,103.198616 159.256561,120.496002 159.356827,137.792984 
	C159.369202,139.930115 159.756287,142.065094 160.043808,144.615021 
	C159.418900,143.857300 158.116989,142.688583 158.111252,141.513535 
	C158.024200,123.665550 158.103012,105.816734 158.171570,87.968216 
	C158.173340,87.506699 158.497208,87.046417 158.923096,86.243454 
z"/>
<path fill="#009CFF" opacity="1.000000" stroke="none" 
	d="
M173.640656,143.699554 
	C173.376846,124.482758 173.442474,104.982780 173.606552,84.964096 
	C174.135544,86.191299 174.929886,87.935112 174.940002,89.683456 
	C175.035416,106.181206 175.022202,122.679832 174.952866,139.177841 
	C174.946930,140.592026 174.312546,142.003586 173.640656,143.699554 
z"/>
<path fill="#019FFF" opacity="1.000000" stroke="none" 
	d="
M89.971962,143.127808 
	C89.676537,128.656189 89.586220,113.780006 89.476593,98.903961 
	C89.444885,94.600754 89.357773,90.297966 89.290108,85.527069 
	C89.852303,86.358543 90.907135,87.655014 90.914932,88.957756 
	C91.016518,105.928261 90.982414,122.899689 90.926559,139.870712 
	C90.923416,140.822403 90.433212,141.772476 89.971962,143.127808 
z"/>
<path fill="#0FA4FF" opacity="1.000000" stroke="none" 
	d="
M114.476669,141.812073 
	C114.137421,134.392883 114.137421,126.796509 114.137421,117.948761 
	C116.177063,120.142281 117.633171,121.708237 119.248627,123.575623 
	C116.253227,123.315285 116.050568,125.180222 115.947464,127.650871 
	C115.752625,132.319809 115.212524,136.974335 114.476669,141.812073 
z"/>
<path fill="#13A7FE" opacity="1.000000" stroke="none" 
	d="
M118.049759,101.983292 
	C117.295006,103.520515 116.154007,104.899025 113.953560,107.557510 
	C113.953560,99.407166 113.953560,92.671913 113.981148,85.468903 
	C114.674065,87.020172 115.542641,88.998253 115.959511,91.067337 
	C116.675919,94.623177 117.110580,98.235786 118.049759,101.983292 
z"/>
<path fill="#029EFE" opacity="1.000000" stroke="none" 
	d="
M74.832947,97.309509 
	C75.126495,110.346046 75.178612,123.723022 75.152908,137.565277 
	C74.779137,137.446259 74.221840,136.860260 74.225662,136.277939 
	C74.310181,123.401695 74.456757,110.525871 74.832947,97.309509 
z"/>
<path fill="#13A7FE" opacity="1.000000" stroke="none" 
	d="
M113.880325,84.057449 
	C112.603531,83.170151 111.326004,81.870369 109.785011,80.338661 
	C112.018005,80.000526 113.866043,80.692986 113.880325,84.057449 
z"/>
<path fill="#029EFE" opacity="1.000000" stroke="none" 
	d="
M74.855759,140.243408 
	C75.347496,141.404572 75.621643,142.839081 75.943008,144.636139 
	C75.539543,143.504700 75.088860,142.010712 74.855759,140.243408 
z"/>
<path fill="#13A7FE" opacity="1.000000" stroke="none" 
	d="
M129.458862,89.158920 
	C129.317627,89.894722 128.905075,90.755058 128.230835,91.752769 
	C128.375290,91.021248 128.781403,90.152344 129.458862,89.158920 
z"/>
<path fill="#0FA4FF" opacity="1.000000" stroke="none" 
	d="
M126.011581,131.398773 
	C126.616821,131.844498 127.255867,132.610229 127.895065,133.683563 
	C127.278595,133.233704 126.661995,132.476257 126.011581,131.398773 
z"/>
<path fill="#029EFE" opacity="1.000000" stroke="none" 
	d="
M75.030609,86.076965 
	C75.147728,86.134514 75.171227,86.313957 75.130814,86.757233 
	C74.830818,86.762299 74.787506,86.488228 75.030609,86.076965 
z"/>
<path fill="#1CA9FF" opacity="1.000000" stroke="none" 
	d="
M53.724777,93.303421 
	C53.791035,93.607544 53.549484,93.780930 53.040924,93.936829 
	C53.034756,93.735207 53.249107,93.486328 53.724777,93.303421 
z"/>
<path fill="#20AAFF" opacity="1.000000" stroke="none" 
	d="
M175.333374,65.088188 
	C171.249771,70.490639 167.167236,72.153511 162.362625,70.625549 
	C157.853607,69.191589 154.024414,64.139076 154.328354,59.201080 
	C154.410980,57.858677 156.225800,55.582005 157.348572,55.517178 
	C163.599380,55.156269 169.881851,55.343895 177.357605,55.343895 
	C176.661804,58.921429 176.094513,61.838238 175.333374,65.088188 
z"/>
<path fill="#21ABFF" opacity="1.000000" stroke="none" 
	d="
M70.613983,62.113335 
	C69.756462,55.363953 69.759544,55.353119 75.717888,55.338364 
	C80.217751,55.327221 84.722221,55.460331 89.215942,55.294006 
	C92.192787,55.183826 92.950798,56.613712 92.890640,59.237469 
	C92.765167,64.710060 88.703491,69.934578 83.672318,70.908676 
	C77.981468,72.010498 73.535378,69.117500 70.613983,62.113335 
z"/>
</svg>